<svg width="54" height="54" viewBox="0 0 54 54" fill="none" xmlns="http://www.w3.org/2000/svg">
<mask id="path-1-inside-1_462_27430" fill="white">
<path fill-rule="evenodd" clip-rule="evenodd" d="M33.8571 7.71429C32.2003 7.71429 30.8571 6.37114 30.8571 4.71428V3C30.8571 1.34315 29.514 0 27.8571 0H26.1429C24.486 0 23.1429 1.34315 23.1429 3L23.1429 4.71429C23.1429 6.37114 21.7997 7.71429 20.1429 7.71429H18.4286C16.7717 7.71429 15.4286 9.05743 15.4286 10.7143L15.4286 12.4286C15.4286 14.0854 14.0854 15.4286 12.4286 15.4286L10.7143 15.4286C9.05743 15.4286 7.71429 16.7717 7.71429 18.4286V20.1429C7.71429 21.7997 6.37114 23.1429 4.71428 23.1429H3C1.34315 23.1429 0 24.486 0 26.1429V27.8571C0 29.514 1.34315 30.8571 3 30.8571H4.71429C6.37114 30.8571 7.71429 32.2003 7.71429 33.8571V35.5714C7.71429 37.2283 9.05743 38.5714 10.7143 38.5714H12.4286C14.0854 38.5714 15.4286 39.9146 15.4286 41.5714V43.2857C15.4286 44.9426 16.7717 46.2857 18.4286 46.2857L20.1429 46.2857C21.7997 46.2857 23.1429 47.6289 23.1429 49.2857V51C23.1429 52.6569 24.486 54 26.1429 54H27.8571C29.514 54 30.8571 52.6569 30.8571 51V49.2857C30.8571 47.6289 32.2003 46.2857 33.8571 46.2857L35.5714 46.2857C37.2283 46.2857 38.5714 44.9426 38.5714 43.2857V41.5714C38.5714 39.9146 39.9146 38.5714 41.5714 38.5714H43.2857C44.9426 38.5714 46.2857 37.2283 46.2857 35.5714V33.8571C46.2857 32.2003 47.6289 30.8571 49.2857 30.8571H51C52.6569 30.8571 54 29.514 54 27.8571V26.1429C54 24.486 52.6569 23.1429 51 23.1429H49.2857C47.6289 23.1429 46.2857 21.7997 46.2857 20.1429V18.4286C46.2857 16.7717 44.9426 15.4286 43.2857 15.4286H41.5714C39.9146 15.4286 38.5714 14.0854 38.5714 12.4286V10.7143C38.5714 9.05743 37.2283 7.71429 35.5714 7.71429H33.8571Z"/>
</mask>
<path fill-rule="evenodd" clip-rule="evenodd" d="M33.8571 7.71429C32.2003 7.71429 30.8571 6.37114 30.8571 4.71428V3C30.8571 1.34315 29.514 0 27.8571 0H26.1429C24.486 0 23.1429 1.34315 23.1429 3L23.1429 4.71429C23.1429 6.37114 21.7997 7.71429 20.1429 7.71429H18.4286C16.7717 7.71429 15.4286 9.05743 15.4286 10.7143L15.4286 12.4286C15.4286 14.0854 14.0854 15.4286 12.4286 15.4286L10.7143 15.4286C9.05743 15.4286 7.71429 16.7717 7.71429 18.4286V20.1429C7.71429 21.7997 6.37114 23.1429 4.71428 23.1429H3C1.34315 23.1429 0 24.486 0 26.1429V27.8571C0 29.514 1.34315 30.8571 3 30.8571H4.71429C6.37114 30.8571 7.71429 32.2003 7.71429 33.8571V35.5714C7.71429 37.2283 9.05743 38.5714 10.7143 38.5714H12.4286C14.0854 38.5714 15.4286 39.9146 15.4286 41.5714V43.2857C15.4286 44.9426 16.7717 46.2857 18.4286 46.2857L20.1429 46.2857C21.7997 46.2857 23.1429 47.6289 23.1429 49.2857V51C23.1429 52.6569 24.486 54 26.1429 54H27.8571C29.514 54 30.8571 52.6569 30.8571 51V49.2857C30.8571 47.6289 32.2003 46.2857 33.8571 46.2857L35.5714 46.2857C37.2283 46.2857 38.5714 44.9426 38.5714 43.2857V41.5714C38.5714 39.9146 39.9146 38.5714 41.5714 38.5714H43.2857C44.9426 38.5714 46.2857 37.2283 46.2857 35.5714V33.8571C46.2857 32.2003 47.6289 30.8571 49.2857 30.8571H51C52.6569 30.8571 54 29.514 54 27.8571V26.1429C54 24.486 52.6569 23.1429 51 23.1429H49.2857C47.6289 23.1429 46.2857 21.7997 46.2857 20.1429V18.4286C46.2857 16.7717 44.9426 15.4286 43.2857 15.4286H41.5714C39.9146 15.4286 38.5714 14.0854 38.5714 12.4286V10.7143C38.5714 9.05743 37.2283 7.71429 35.5714 7.71429H33.8571Z" fill="black"/>
<path d="M35.5714 46.2857V45.2857V46.2857ZM33.8571 46.2857V47.2857V46.2857ZM20.1429 46.2857L20.1429 45.2857L20.1429 46.2857ZM18.4286 46.2857V47.2857V46.2857ZM15.4286 12.4286H14.4286H15.4286ZM12.4286 15.4286V14.4286V15.4286ZM15.4286 10.7143H14.4286H15.4286ZM23.1429 4.71429H22.1429H23.1429ZM29.8571 3V4.71428H31.8571V3H29.8571ZM26.1429 1H27.8571V-1H26.1429V1ZM24.1429 4.71429L24.1429 3L22.1429 3L22.1429 4.71429L24.1429 4.71429ZM18.4286 8.71428H20.1429V6.71429H18.4286V8.71428ZM16.4286 12.4286V10.7143H14.4286L14.4286 12.4286H16.4286ZM10.7143 16.4286H12.4286V14.4286L10.7143 14.4286V16.4286ZM8.71429 20.1429V18.4286H6.71429V20.1429H8.71429ZM3 24.1429H4.71428V22.1429H3V24.1429ZM1 27.8571V26.1429H-1V27.8571H1ZM4.71429 29.8571H3V31.8571H4.71429V29.8571ZM8.71429 35.5714V33.8571H6.71429V35.5714H8.71429ZM12.4286 37.5714H10.7143V39.5714H12.4286V37.5714ZM16.4286 43.2857V41.5714H14.4286V43.2857H16.4286ZM20.1429 45.2857L18.4286 45.2857V47.2857L20.1429 47.2857L20.1429 45.2857ZM24.1429 51V49.2857H22.1429V51H24.1429ZM27.8571 53H26.1429V55H27.8571V53ZM29.8571 49.2857V51H31.8571V49.2857H29.8571ZM35.5714 45.2857L33.8571 45.2857V47.2857L35.5714 47.2857V45.2857ZM37.5714 41.5714V43.2857H39.5714V41.5714H37.5714ZM43.2857 37.5714H41.5714V39.5714H43.2857V37.5714ZM45.2857 33.8571V35.5714H47.2857V33.8571H45.2857ZM51 29.8571H49.2857V31.8571H51V29.8571ZM53 26.1429V27.8571H55V26.1429H53ZM49.2857 24.1429H51V22.1429H49.2857V24.1429ZM45.2857 18.4286V20.1429H47.2857V18.4286H45.2857ZM41.5714 16.4286H43.2857V14.4286H41.5714V16.4286ZM37.5714 10.7143V12.4286H39.5714V10.7143H37.5714ZM33.8571 8.71429H35.5714V6.71429H33.8571V8.71429ZM39.5714 10.7143C39.5714 8.50515 37.7806 6.71429 35.5714 6.71429V8.71429C36.676 8.71429 37.5714 9.60972 37.5714 10.7143H39.5714ZM41.5714 14.4286C40.4669 14.4286 39.5714 13.5331 39.5714 12.4286H37.5714C37.5714 14.6377 39.3623 16.4286 41.5714 16.4286V14.4286ZM47.2857 18.4286C47.2857 16.2194 45.4949 14.4286 43.2857 14.4286V16.4286C44.3903 16.4286 45.2857 17.324 45.2857 18.4286H47.2857ZM49.2857 22.1429C48.1811 22.1429 47.2857 21.2474 47.2857 20.1429H45.2857C45.2857 22.352 47.0766 24.1429 49.2857 24.1429V22.1429ZM55 26.1429C55 23.9337 53.2091 22.1429 51 22.1429V24.1429C52.1046 24.1429 53 25.0383 53 26.1429H55ZM51 31.8571C53.2091 31.8571 55 30.0663 55 27.8571H53C53 28.9617 52.1046 29.8571 51 29.8571V31.8571ZM47.2857 33.8571C47.2857 32.7526 48.1811 31.8571 49.2857 31.8571V29.8571C47.0766 29.8571 45.2857 31.648 45.2857 33.8571H47.2857ZM43.2857 39.5714C45.4949 39.5714 47.2857 37.7806 47.2857 35.5714H45.2857C45.2857 36.676 44.3903 37.5714 43.2857 37.5714V39.5714ZM39.5714 41.5714C39.5714 40.4669 40.4669 39.5714 41.5714 39.5714V37.5714C39.3623 37.5714 37.5714 39.3623 37.5714 41.5714H39.5714ZM35.5714 47.2857C37.7806 47.2857 39.5714 45.4949 39.5714 43.2857H37.5714C37.5714 44.3903 36.676 45.2857 35.5714 45.2857V47.2857ZM31.8571 49.2857C31.8571 48.1811 32.7526 47.2857 33.8571 47.2857V45.2857C31.648 45.2857 29.8571 47.0766 29.8571 49.2857H31.8571ZM27.8571 55C30.0663 55 31.8571 53.2091 31.8571 51H29.8571C29.8571 52.1046 28.9617 53 27.8571 53V55ZM22.1429 51C22.1429 53.2091 23.9337 55 26.1429 55V53C25.0383 53 24.1429 52.1046 24.1429 51H22.1429ZM20.1429 47.2857C21.2474 47.2857 22.1429 48.1811 22.1429 49.2857H24.1429C24.1429 47.0766 22.352 45.2857 20.1429 45.2857L20.1429 47.2857ZM14.4286 43.2857C14.4286 45.4949 16.2194 47.2857 18.4286 47.2857V45.2857C17.324 45.2857 16.4286 44.3903 16.4286 43.2857H14.4286ZM12.4286 39.5714C13.5331 39.5714 14.4286 40.4669 14.4286 41.5714H16.4286C16.4286 39.3623 14.6377 37.5714 12.4286 37.5714V39.5714ZM6.71429 35.5714C6.71429 37.7806 8.50515 39.5714 10.7143 39.5714V37.5714C9.60972 37.5714 8.71429 36.676 8.71429 35.5714H6.71429ZM4.71429 31.8571C5.81886 31.8571 6.71429 32.7526 6.71429 33.8571H8.71429C8.71429 31.648 6.92342 29.8571 4.71429 29.8571V31.8571ZM-1 27.8571C-1 30.0663 0.790864 31.8571 3 31.8571V29.8571C1.89543 29.8571 1 28.9617 1 27.8571H-1ZM3 22.1429C0.790862 22.1429 -1 23.9337 -1 26.1429H1C1 25.0383 1.89543 24.1429 3 24.1429V22.1429ZM6.71429 20.1429C6.71429 21.2474 5.81885 22.1429 4.71428 22.1429V24.1429C6.92342 24.1429 8.71429 22.352 8.71429 20.1429H6.71429ZM10.7143 14.4286C8.50515 14.4286 6.71429 16.2194 6.71429 18.4286H8.71429C8.71429 17.324 9.60972 16.4286 10.7143 16.4286V14.4286ZM14.4286 12.4286C14.4286 13.5331 13.5331 14.4286 12.4286 14.4286V16.4286C14.6377 16.4286 16.4286 14.6377 16.4286 12.4286H14.4286ZM18.4286 6.71429C16.2194 6.71429 14.4286 8.50515 14.4286 10.7143H16.4286C16.4286 9.60972 17.324 8.71428 18.4286 8.71428V6.71429ZM22.1429 4.71429C22.1429 5.81885 21.2474 6.71429 20.1429 6.71429V8.71428C22.352 8.71428 24.1429 6.92343 24.1429 4.71429L22.1429 4.71429ZM26.1429 -1C23.9337 -1 22.1429 0.790864 22.1429 3L24.1429 3C24.1429 1.89543 25.0383 1 26.1429 1V-1ZM29.8571 4.71428C29.8571 6.92342 31.648 8.71429 33.8571 8.71429V6.71429C32.7526 6.71429 31.8571 5.81885 31.8571 4.71428H29.8571ZM31.8571 3C31.8571 0.79086 30.0663 -1 27.8571 -1V1C28.9617 1 29.8571 1.89543 29.8571 3H31.8571Z" fill="black" mask="url(#path-1-inside-1_462_27430)"/>
</svg>
