<svg width="50" height="50" viewBox="0 0 50 50" fill="none" xmlns="http://www.w3.org/2000/svg">
<path d="M28.0714 4.36508C28.0714 6.17534 29.5389 7.64286 31.3492 7.64286H32.9365C34.1945 7.64286 35.2143 8.66265 35.2143 9.92064V11.5079C35.2143 13.3182 36.6818 14.7857 38.4921 14.7857H40.0794C41.3374 14.7857 42.3571 15.8055 42.3571 17.0635V18.6508C42.3571 20.4611 43.8247 21.9286 45.6349 21.9286H47.2222C48.4802 21.9286 49.5 22.9484 49.5 24.2063V25.7937C49.5 27.0516 48.4802 28.0714 47.2222 28.0714H45.6349C43.8247 28.0714 42.3571 29.5389 42.3571 31.3492V32.9365C42.3571 34.1945 41.3373 35.2143 40.0794 35.2143H38.4921C36.6818 35.2143 35.2143 36.6818 35.2143 38.4921V40.0794C35.2143 41.3373 34.1945 42.3571 32.9365 42.3571L31.3492 42.3571C29.5389 42.3571 28.0714 43.8247 28.0714 45.6349V47.2222C28.0714 48.4802 27.0516 49.5 25.7937 49.5H24.2063C22.9484 49.5 21.9286 48.4802 21.9286 47.2222V45.6349C21.9286 43.8247 20.4611 42.3571 18.6508 42.3571L17.0635 42.3571C15.8055 42.3571 14.7857 41.3373 14.7857 40.0794V38.4921C14.7857 36.6818 13.3182 35.2143 11.5079 35.2143H9.92064C8.66266 35.2143 7.64286 34.1945 7.64286 32.9365V31.3492C7.64286 29.5389 6.17535 28.0714 4.36508 28.0714H2.77778C1.5198 28.0714 0.5 27.0516 0.5 25.7937V24.2063C0.5 22.9484 1.5198 21.9286 2.77778 21.9286H4.36508C6.17534 21.9286 7.64286 20.4611 7.64286 18.6508V17.0635C7.64286 15.8055 8.66265 14.7857 9.92063 14.7857L11.5079 14.7857C13.3182 14.7857 14.7857 13.3182 14.7857 11.5079L14.7857 9.92064C14.7857 8.66265 15.8055 7.64286 17.0635 7.64286H18.6508C20.4611 7.64286 21.9286 6.17535 21.9286 4.36508L21.9286 2.77778C21.9286 1.5198 22.9484 0.5 24.2063 0.5H25.7936C27.0516 0.5 28.0714 1.5198 28.0714 2.77778V4.36508Z" fill="white" stroke="black"/>
</svg>
