<svg width="50" height="50" viewBox="0 0 50 50" fill="none" xmlns="http://www.w3.org/2000/svg">
<mask id="path-1-inside-1_462_29168" fill="white">
<path fill-rule="evenodd" clip-rule="evenodd" d="M30 0H20H15C12.2386 0 10 2.23858 10 5C10 7.76142 7.76142 10 5 10C2.23858 10 0 12.2386 0 15V20V30V35C0 37.7614 2.23858 40 5 40C7.76142 40 10 42.2386 10 45C10 47.7614 12.2386 50 15 50H20H30H35C37.7614 50 40 47.7614 40 45C40 42.2386 42.2386 40 45 40C47.7614 40 50 37.7614 50 35V30V20V15C50 12.2386 47.7614 10 45 10C42.2386 10 40 7.76142 40 5C40 2.23858 37.7614 0 35 0H30Z"/>
</mask>
<path fill-rule="evenodd" clip-rule="evenodd" d="M30 0H20H15C12.2386 0 10 2.23858 10 5C10 7.76142 7.76142 10 5 10C2.23858 10 0 12.2386 0 15V20V30V35C0 37.7614 2.23858 40 5 40C7.76142 40 10 42.2386 10 45C10 47.7614 12.2386 50 15 50H20H30H35C37.7614 50 40 47.7614 40 45C40 42.2386 42.2386 40 45 40C47.7614 40 50 37.7614 50 35V30V20V15C50 12.2386 47.7614 10 45 10C42.2386 10 40 7.76142 40 5C40 2.23858 37.7614 0 35 0H30Z" fill="black"/>
<path d="M20 1H30V-1H20V1ZM15 1H20V-1H15V1ZM1 20V15H-1V20H1ZM1 30V20H-1V30H1ZM1 35V30H-1V35H1ZM20 49H15V51H20V49ZM30 49H20V51H30V49ZM35 49H30V51H35V49ZM49 30V35H51V30H49ZM49 20V30H51V20H49ZM49 15V20H51V15H49ZM30 1H35V-1H30V1ZM41 5C41 1.68629 38.3137 -1 35 -1V1C37.2091 1 39 2.79086 39 5H41ZM51 15C51 11.6863 48.3137 9 45 9V11C47.2091 11 49 12.7909 49 15H51ZM35 51C38.3137 51 41 48.3137 41 45H39C39 47.2091 37.2091 49 35 49V51ZM9 45C9 48.3137 11.6863 51 15 51V49C12.7909 49 11 47.2091 11 45H9ZM5 9C1.68629 9 -1 11.6863 -1 15H1C1 12.7909 2.79086 11 5 11V9ZM5 41C7.20914 41 9 42.7909 9 45H11C11 41.6863 8.31371 39 5 39V41ZM45 41C48.3137 41 51 38.3137 51 35H49C49 37.2091 47.2091 39 45 39V41ZM9 5C9 7.20914 7.20914 9 5 9V11C8.31371 11 11 8.31371 11 5H9ZM45 9C42.7909 9 41 7.20914 41 5H39C39 8.31371 41.6863 11 45 11V9ZM-1 35C-1 38.3137 1.68629 41 5 41V39C2.79086 39 1 37.2091 1 35H-1ZM41 45C41 42.7909 42.7909 41 45 41V39C41.6863 39 39 41.6863 39 45H41ZM15 -1C11.6863 -1 9 1.68629 9 5H11C11 2.79086 12.7909 1 15 1V-1Z" fill="black" mask="url(#path-1-inside-1_462_29168)"/>
</svg>
